<svg width="1037" height="1418" viewBox="0 0 1037 1418" fill="none" xmlns="http://www.w3.org/2000/svg">
<path d="M17.9074 1097.88C15.4053 1097.88 13.2941 1097.02 11.5739 1095.3C10.0101 1093.42 9.38456 1091.23 9.69733 1088.73L19.7839 1009.92C20.0967 1006.79 21.2696 1004.44 23.3025 1002.88C25.4919 1001.31 27.8376 1000.53 30.3397 1000.53C32.8418 1000.53 35.1093 1001.16 37.1423 1002.41C39.3316 1003.5 40.8173 1005.22 41.5992 1007.57L60.1304 1060.11C60.9123 1061.99 61.6942 1062.93 62.4761 1062.93C63.4144 1062.93 64.1963 1061.99 64.8218 1060.11L83.3531 1007.57C84.135 1005.22 85.5424 1003.5 87.5754 1002.41C89.7647 1001.16 92.0322 1000.53 94.378 1000.53C96.8801 1000.53 99.2258 1001.31 101.415 1002.88C103.604 1004.44 104.856 1006.79 105.168 1009.92L115.255 1088.73C115.568 1091.23 114.942 1093.42 113.378 1095.3C111.815 1097.02 109.703 1097.88 107.045 1097.88C105.012 1097.88 103.135 1097.18 101.415 1095.77C99.8513 1094.36 98.913 1092.56 98.6003 1090.37L93.4397 1032.43C93.2833 1030.56 92.6578 1029.62 91.5631 1029.62C90.4684 1029.62 89.6865 1030.4 89.2174 1031.97L72.3282 1078.64C71.3899 1081.15 70.0606 1082.95 68.3404 1084.04C66.6202 1085.13 64.6655 1085.68 62.4761 1085.68C58.2538 1085.68 55.048 1083.34 52.8587 1078.64L35.7349 1031.97C35.1093 1030.4 34.3274 1029.62 33.3891 1029.62C32.7636 1029.62 32.2945 1030.56 31.9817 1032.43L26.352 1090.37C26.1956 1092.56 25.2573 1094.36 23.5371 1095.77C21.9733 1097.18 20.0967 1097.88 17.9074 1097.88ZM239.054 1095.53C235.614 1095.53 232.877 1094.52 230.844 1092.48C228.811 1090.3 227.795 1087.95 227.795 1085.45C227.795 1083.26 228.498 1081.23 229.906 1079.35L276.351 1020.47C276.977 1019.69 277.289 1018.91 277.289 1018.13C277.289 1016.87 276.351 1016.25 274.475 1016.25H237.881C235.536 1016.25 233.659 1015.54 232.252 1014.14C231 1012.73 230.375 1011.09 230.375 1009.21C230.375 1007.18 230.922 1005.46 232.017 1004.05C233.268 1002.49 235.223 1001.71 237.881 1001.71H288.314C291.911 1001.71 294.648 1002.72 296.524 1004.75C298.401 1006.63 299.339 1008.9 299.339 1011.56C299.339 1014.22 298.401 1016.72 296.524 1019.06L250.314 1076.77C249.688 1077.39 249.375 1078.1 249.375 1078.88C249.375 1080.29 250.392 1080.99 252.425 1080.99H296.994C299.496 1080.99 301.294 1081.77 302.389 1083.34C303.483 1084.9 304.031 1086.54 304.031 1088.26C304.031 1090.14 303.405 1091.86 302.154 1093.42C300.903 1094.83 299.183 1095.53 296.994 1095.53H239.054ZM421.956 1097.88C419.924 1097.88 418.125 1097.18 416.561 1095.77C414.997 1094.36 414.216 1092.48 414.216 1090.14C414.216 1089.36 414.372 1088.34 414.685 1087.09L444.006 1007.57C445.101 1004.91 446.743 1002.88 448.932 1001.47C451.122 1000.06 453.467 999.359 455.969 999.359C458.472 999.359 460.817 1000.06 463.007 1001.47C465.352 1002.88 467.073 1004.91 468.167 1007.57L499.365 1087.09C499.678 1088.34 499.835 1089.36 499.835 1090.14C499.835 1092.48 499.053 1094.36 497.489 1095.77C495.925 1097.18 494.127 1097.88 492.094 1097.88C490.686 1097.88 489.201 1097.49 487.637 1096.71C486.229 1096.08 485.135 1094.99 484.353 1093.42L476.612 1072.78C476.455 1071.84 475.83 1071.37 474.735 1071.37H438.846C437.751 1071.37 437.047 1071.84 436.735 1072.78L429.697 1093.42C428.915 1094.99 427.743 1096.08 426.179 1096.71C424.771 1097.49 423.364 1097.88 421.956 1097.88ZM445.883 1057.3H466.994C467.933 1057.3 468.636 1056.99 469.106 1056.36C469.731 1055.58 469.887 1054.64 469.575 1053.55L458.315 1021.41C457.846 1019.85 457.142 1019.06 456.204 1019.06C455.109 1019.06 454.327 1019.85 453.858 1021.41L443.303 1053.78C442.99 1054.72 443.068 1055.58 443.537 1056.36C444.163 1056.99 444.945 1057.3 445.883 1057.3ZM626.568 1097.88C624.535 1097.88 622.658 1097.25 620.938 1096C619.218 1094.75 618.358 1092.88 618.358 1090.37V1011.32C618.358 1007.73 619.452 1005.07 621.642 1003.35C623.987 1001.47 626.49 1000.53 629.148 1000.53C633.214 1000.53 636.185 1002.1 638.062 1005.22L676.766 1065.98C677.548 1067.23 678.408 1067.85 679.347 1067.85C680.754 1067.85 681.458 1066.76 681.458 1064.57L680.519 1008.04C680.519 1005.54 681.379 1003.66 683.1 1002.41C684.82 1001.16 686.696 1000.53 688.729 1000.53C690.762 1000.53 692.639 1001.16 694.359 1002.41C696.079 1003.66 696.939 1005.54 696.939 1008.04V1087.56C696.939 1091 695.923 1093.58 693.89 1095.3C691.857 1097.02 689.511 1097.88 686.853 1097.88C684.976 1097.88 683.1 1097.41 681.223 1096.47C679.503 1095.69 678.017 1094.36 676.766 1092.48L638.765 1033.37C637.984 1032.12 637.123 1031.5 636.185 1031.5C634.778 1031.5 634.074 1032.59 634.074 1034.78L634.778 1090.37C634.778 1092.88 633.918 1094.75 632.197 1096C630.634 1097.25 628.757 1097.88 626.568 1097.88ZM851.711 1097.88C844.831 1097.88 838.184 1096.71 831.773 1094.36C825.518 1092.02 820.67 1088.65 817.229 1084.27C815.978 1082.55 815.353 1080.83 815.353 1079.11C815.353 1077.08 816.135 1075.36 817.698 1073.95C819.419 1072.39 821.295 1071.61 823.328 1071.61C824.423 1071.61 825.518 1071.84 826.612 1072.31C827.707 1072.62 828.567 1073.25 829.192 1074.19C831.695 1077.16 835.057 1079.51 839.279 1081.23C843.658 1082.95 848.193 1083.81 852.884 1083.81C858.358 1083.81 862.815 1082.48 866.255 1079.82C869.852 1077.16 871.65 1073.64 871.65 1069.26C871.65 1064.26 869.539 1060.74 865.317 1058.71C861.251 1056.52 856.481 1054.95 851.008 1054.01C846.003 1053.08 840.921 1051.75 835.761 1050.03C830.6 1048.15 826.299 1045.49 822.859 1042.05C819.419 1038.45 817.698 1033.61 817.698 1027.51C817.698 1019.22 820.826 1012.65 827.081 1007.8C833.493 1002.96 842.016 1000.53 852.65 1000.53C858.279 1000.53 863.44 1001.39 868.131 1003.11C872.823 1004.68 876.732 1006.87 879.86 1009.68C881.737 1011.24 882.675 1013.2 882.675 1015.54C882.675 1017.42 881.971 1019.06 880.564 1020.47C879.156 1021.88 877.514 1022.58 875.638 1022.58C873.761 1022.58 871.963 1021.96 870.243 1020.71C865.238 1016.64 859.061 1014.61 851.711 1014.61C839.201 1014.61 832.946 1018.83 832.946 1027.27C832.946 1031.34 834.822 1034.15 838.575 1035.72C842.485 1037.13 847.724 1038.61 854.292 1040.18C857.419 1040.8 860.782 1041.74 864.378 1042.99C868.131 1044.08 871.728 1045.73 875.169 1047.92C878.609 1049.95 881.424 1052.76 883.613 1056.36C885.803 1059.8 886.897 1064.18 886.897 1069.5C886.897 1077.94 883.613 1084.82 877.045 1090.14C870.634 1095.3 862.189 1097.88 851.711 1097.88ZM1015.82 1097.88C1013.79 1097.88 1011.91 1097.18 1010.19 1095.77C1008.47 1094.52 1007.61 1092.64 1007.61 1090.14V1008.27C1007.61 1005.61 1008.47 1003.66 1010.19 1002.41C1011.91 1001.16 1013.79 1000.53 1015.82 1000.53C1018.01 1000.53 1019.89 1001.16 1021.45 1002.41C1023.17 1003.66 1024.03 1005.61 1024.03 1008.27V1090.14C1024.03 1092.64 1023.17 1094.52 1021.45 1095.77C1019.89 1097.18 1018.01 1097.88 1015.82 1097.88Z" fill="#FF6A0E"/>
<path d="M58.5257 1375.54V1396.15C55.8509 1398.07 53.0043 1399.5 49.9858 1400.46C46.9674 1401.39 43.6791 1401.86 40.1208 1401.86C35.8508 1401.86 31.9858 1401.2 28.5256 1399.87C25.0901 1398.55 22.1575 1396.69 19.7281 1394.31C17.2986 1391.93 15.4213 1389.09 14.0962 1385.77C12.7955 1382.46 12.1452 1378.82 12.1452 1374.84C12.1452 1370.84 12.771 1367.18 14.0225 1363.87C15.2986 1360.53 17.1146 1357.69 19.4704 1355.33C21.8262 1352.95 24.6729 1351.11 28.0103 1349.81C31.3723 1348.49 35.1392 1347.82 39.311 1347.82C41.4214 1347.82 43.3723 1347.98 45.1637 1348.3C46.9797 1348.62 48.6607 1349.07 50.2067 1349.66C51.7527 1350.25 53.176 1350.96 54.4767 1351.8C55.8018 1352.61 57.0288 1353.53 58.1576 1354.56L55.9122 1358.09C55.5687 1358.66 55.1147 1359.01 54.5503 1359.16C53.9859 1359.31 53.3724 1359.17 52.7098 1358.76C52.0717 1358.39 51.3601 1357.96 50.5748 1357.47C49.8141 1356.98 48.8938 1356.52 47.8141 1356.1C46.7588 1355.69 45.5196 1355.33 44.0962 1355.04C42.6729 1354.74 40.9919 1354.6 39.0533 1354.6C36.1576 1354.6 33.5441 1355.07 31.2128 1356.03C28.8815 1356.96 26.8937 1358.31 25.2496 1360.08C23.6054 1361.85 22.3416 1363.98 21.4581 1366.49C20.5747 1368.96 20.133 1371.75 20.133 1374.84C20.133 1378.08 20.5992 1380.99 21.5318 1383.56C22.4643 1386.12 23.7772 1388.29 25.4704 1390.08C27.1882 1391.85 29.2618 1393.2 31.6913 1394.13C34.1453 1395.06 36.8815 1395.53 39.8999 1395.53C41.0778 1395.53 42.1699 1395.47 43.176 1395.34C44.2067 1395.2 45.1883 1395 46.1208 1394.76C47.0533 1394.51 47.949 1394.2 48.8079 1393.83C49.6914 1393.47 50.5625 1393.06 51.4214 1392.62V1381.54H43.6177C43.1269 1381.54 42.722 1381.39 42.403 1381.1C42.1085 1380.8 41.9613 1380.44 41.9613 1379.99V1375.54H58.5257ZM107.419 1378.41C107.419 1376.99 107.211 1375.68 106.793 1374.47C106.401 1373.27 105.812 1372.23 105.026 1371.34C104.241 1370.46 103.284 1369.77 102.155 1369.28C101.026 1368.79 99.7258 1368.55 98.2534 1368.55C95.235 1368.55 92.8546 1369.42 91.1123 1371.16C89.3945 1372.9 88.3025 1375.32 87.8362 1378.41H107.419ZM113.346 1395.93C112.462 1396.96 111.444 1397.86 110.29 1398.62C109.137 1399.36 107.91 1399.96 106.609 1400.42C105.309 1400.89 103.959 1401.23 102.56 1401.45C101.186 1401.68 99.824 1401.79 98.4743 1401.79C95.8976 1401.79 93.505 1401.36 91.2964 1400.5C89.1123 1399.61 87.2105 1398.34 85.5908 1396.67C83.9957 1394.98 82.7442 1392.89 81.8362 1390.41C80.9528 1387.91 80.5111 1385.04 80.5111 1381.8C80.5111 1379.2 80.916 1376.78 81.7258 1374.55C82.5356 1372.29 83.689 1370.33 85.1859 1368.66C86.7074 1366.99 88.5602 1365.68 90.7442 1364.72C92.9283 1363.76 95.3823 1363.28 98.1062 1363.28C100.388 1363.28 102.487 1363.66 104.401 1364.42C106.339 1365.16 108.008 1366.24 109.407 1367.66C110.806 1369.09 111.898 1370.84 112.683 1372.93C113.493 1375.01 113.898 1377.39 113.898 1380.07C113.898 1381.17 113.775 1381.92 113.53 1382.31C113.284 1382.68 112.83 1382.87 112.168 1382.87H87.6522C87.7258 1385.1 88.0448 1387.05 88.6092 1388.72C89.1737 1390.36 89.9467 1391.74 90.9283 1392.84C91.9344 1393.95 93.1246 1394.77 94.4988 1395.31C95.8731 1395.85 97.4068 1396.12 99.1001 1396.12C100.695 1396.12 102.069 1395.93 103.223 1395.56C104.401 1395.2 105.407 1394.8 106.241 1394.39C107.1 1393.95 107.812 1393.54 108.376 1393.17C108.965 1392.8 109.48 1392.62 109.922 1392.62C110.511 1392.62 110.965 1392.84 111.284 1393.28L113.346 1395.93ZM148.491 1401.86C145.473 1401.86 143.141 1401.01 141.497 1399.32C139.877 1397.63 139.068 1395.21 139.068 1392.07V1369.69H134.724C134.307 1369.69 133.951 1369.56 133.657 1369.32C133.387 1369.05 133.252 1368.66 133.252 1368.14V1365.23L139.325 1364.39L140.945 1353.23C141.043 1352.82 141.227 1352.5 141.497 1352.28C141.792 1352.03 142.16 1351.91 142.601 1351.91H146.246V1364.46H156.847V1369.69H146.246V1391.59C146.246 1393.06 146.601 1394.17 147.313 1394.9C148.049 1395.61 148.982 1395.97 150.111 1395.97C150.773 1395.97 151.338 1395.88 151.804 1395.71C152.295 1395.54 152.712 1395.36 153.055 1395.16C153.399 1394.94 153.693 1394.74 153.939 1394.57C154.184 1394.4 154.405 1394.31 154.601 1394.31C154.847 1394.31 155.031 1394.37 155.154 1394.5C155.301 1394.6 155.448 1394.77 155.595 1395.01L157.73 1398.47C156.552 1399.55 155.154 1400.39 153.534 1400.98C151.914 1401.56 150.233 1401.86 148.491 1401.86ZM241.821 1357.02C241.576 1357.44 241.318 1357.75 241.048 1357.95C240.778 1358.14 240.435 1358.24 240.018 1358.24C239.576 1358.24 239.073 1358.04 238.508 1357.65C237.944 1357.23 237.232 1356.78 236.374 1356.29C235.539 1355.77 234.533 1355.32 233.355 1354.93C232.177 1354.51 230.766 1354.3 229.122 1354.3C227.576 1354.3 226.214 1354.51 225.036 1354.93C223.883 1355.32 222.913 1355.87 222.128 1356.58C221.343 1357.27 220.742 1358.09 220.324 1359.05C219.932 1359.98 219.735 1361 219.735 1362.1C219.735 1363.53 220.091 1364.71 220.803 1365.64C221.539 1366.57 222.496 1367.37 223.674 1368.03C224.852 1368.69 226.189 1369.27 227.686 1369.76C229.183 1370.25 230.717 1370.77 232.288 1371.31C233.858 1371.82 235.392 1372.42 236.889 1373.11C238.386 1373.8 239.723 1374.67 240.901 1375.72C242.079 1376.76 243.024 1378.03 243.735 1379.55C244.472 1381.05 244.84 1382.89 244.84 1385.07C244.84 1387.41 244.435 1389.59 243.625 1391.63C242.84 1393.66 241.686 1395.44 240.165 1396.96C238.643 1398.49 236.766 1399.69 234.533 1400.57C232.324 1401.43 229.809 1401.86 226.987 1401.86C225.294 1401.86 223.65 1401.69 222.054 1401.34C220.459 1401.03 218.95 1400.57 217.527 1399.98C216.104 1399.37 214.766 1398.64 213.515 1397.81C212.288 1396.95 211.183 1395.99 210.202 1394.94L212.447 1391.18C212.668 1390.89 212.926 1390.64 213.22 1390.45C213.539 1390.25 213.895 1390.15 214.288 1390.15C214.803 1390.15 215.392 1390.42 216.054 1390.96C216.742 1391.5 217.576 1392.1 218.557 1392.77C219.564 1393.41 220.754 1393.99 222.128 1394.53C223.527 1395.07 225.22 1395.34 227.208 1395.34C228.827 1395.34 230.275 1395.14 231.551 1394.72C232.827 1394.28 233.895 1393.66 234.754 1392.88C235.637 1392.07 236.312 1391.1 236.778 1389.97C237.245 1388.84 237.478 1387.59 237.478 1386.22C237.478 1384.67 237.122 1383.41 236.41 1382.42C235.699 1381.44 234.754 1380.62 233.576 1379.96C232.398 1379.29 231.061 1378.73 229.564 1378.26C228.067 1377.8 226.533 1377.32 224.962 1376.83C223.392 1376.31 221.858 1375.72 220.361 1375.06C218.864 1374.4 217.527 1373.54 216.349 1372.49C215.171 1371.41 214.226 1370.07 213.515 1368.47C212.803 1366.85 212.447 1364.87 212.447 1362.51C212.447 1360.62 212.815 1358.79 213.551 1357.02C214.288 1355.26 215.355 1353.7 216.754 1352.35C218.177 1350.98 219.919 1349.88 221.981 1349.07C224.042 1348.24 226.398 1347.82 229.048 1347.82C232.018 1347.82 234.742 1348.3 237.22 1349.26C239.723 1350.19 241.895 1351.54 243.735 1353.31L241.821 1357.02ZM267.714 1401.27V1363.87H272.02C273.027 1363.87 273.652 1364.35 273.898 1365.31L274.413 1368.88C275.787 1367.23 277.309 1365.9 278.978 1364.87C280.671 1363.81 282.646 1363.28 284.904 1363.28C287.382 1363.28 289.395 1363.97 290.941 1365.34C292.487 1366.69 293.616 1368.53 294.327 1370.87C294.867 1369.54 295.567 1368.4 296.425 1367.44C297.284 1366.49 298.241 1365.7 299.297 1365.09C300.352 1364.47 301.468 1364.02 302.646 1363.72C303.849 1363.43 305.064 1363.28 306.291 1363.28C308.278 1363.28 310.045 1363.6 311.591 1364.24C313.162 1364.85 314.487 1365.76 315.567 1366.96C316.646 1368.17 317.468 1369.65 318.033 1371.42C318.597 1373.18 318.88 1375.2 318.88 1377.45V1401.27H311.665V1377.45C311.665 1374.66 311.051 1372.55 309.824 1371.12C308.622 1369.7 306.855 1368.99 304.524 1368.99C303.493 1368.99 302.511 1369.17 301.579 1369.54C300.646 1369.88 299.824 1370.41 299.113 1371.12C298.425 1371.83 297.873 1372.72 297.456 1373.77C297.063 1374.83 296.867 1376.06 296.867 1377.45V1401.27H289.652V1377.45C289.652 1374.56 289.076 1372.42 287.922 1371.05C286.769 1369.68 285.076 1368.99 282.843 1368.99C281.297 1368.99 279.861 1369.39 278.536 1370.2C277.211 1371.01 275.996 1372.12 274.892 1373.52V1401.27H267.714ZM364.095 1384.67C361.175 1384.77 358.696 1385 356.659 1385.37C354.622 1385.71 352.966 1386.18 351.69 1386.77C350.414 1387.36 349.493 1388.06 348.929 1388.87C348.365 1389.65 348.082 1390.53 348.082 1391.52C348.082 1392.45 348.23 1393.26 348.524 1393.95C348.843 1394.61 349.26 1395.16 349.776 1395.6C350.316 1396.02 350.941 1396.33 351.653 1396.52C352.365 1396.72 353.138 1396.82 353.972 1396.82C355.076 1396.82 356.082 1396.71 356.99 1396.49C357.923 1396.26 358.794 1395.96 359.604 1395.56C360.414 1395.15 361.187 1394.64 361.923 1394.06C362.659 1393.47 363.383 1392.79 364.095 1392.03V1384.67ZM343.039 1369.1C345.125 1367.11 347.383 1365.63 349.813 1364.64C352.267 1363.66 354.954 1363.17 357.874 1363.17C360.009 1363.17 361.898 1363.53 363.543 1364.24C365.187 1364.93 366.573 1365.9 367.702 1367.15C368.831 1368.4 369.678 1369.9 370.242 1371.64C370.831 1373.38 371.125 1375.31 371.125 1377.42V1401.27H367.923C367.211 1401.27 366.671 1401.16 366.303 1400.94C365.935 1400.69 365.641 1400.25 365.42 1399.61L364.647 1396.34C363.69 1397.22 362.745 1398.01 361.813 1398.69C360.88 1399.36 359.898 1399.93 358.868 1400.42C357.862 1400.89 356.782 1401.25 355.628 1401.49C354.475 1401.74 353.199 1401.86 351.8 1401.86C350.328 1401.86 348.941 1401.66 347.641 1401.27C346.365 1400.85 345.248 1400.23 344.291 1399.39C343.334 1398.56 342.573 1397.52 342.009 1396.26C341.469 1395.01 341.199 1393.55 341.199 1391.88C341.199 1390.41 341.592 1389 342.377 1387.65C343.187 1386.28 344.487 1385.05 346.279 1383.97C348.095 1382.89 350.451 1382.01 353.346 1381.32C356.267 1380.63 359.849 1380.24 364.095 1380.14V1377.42C364.095 1374.6 363.494 1372.49 362.291 1371.09C361.089 1369.69 359.322 1368.99 356.99 1368.99C355.42 1368.99 354.095 1369.18 353.015 1369.58C351.96 1369.97 351.04 1370.41 350.254 1370.9C349.493 1371.37 348.819 1371.8 348.23 1372.19C347.665 1372.58 347.076 1372.78 346.463 1372.78C345.972 1372.78 345.543 1372.64 345.174 1372.37C344.831 1372.1 344.549 1371.79 344.328 1371.42L343.039 1369.1ZM402.968 1371.05C404.17 1368.6 405.618 1366.67 407.311 1365.27C409.005 1363.87 411.041 1363.17 413.422 1363.17C414.232 1363.17 414.992 1363.27 415.704 1363.47C416.44 1363.64 417.078 1363.91 417.618 1364.28L417.14 1369.69C416.968 1370.35 416.563 1370.68 415.925 1370.68C415.581 1370.68 415.066 1370.62 414.379 1370.5C413.692 1370.35 412.956 1370.28 412.17 1370.28C411.017 1370.28 409.998 1370.45 409.115 1370.79C408.232 1371.11 407.434 1371.6 406.722 1372.26C406.035 1372.9 405.422 1373.7 404.882 1374.66C404.342 1375.59 403.839 1376.66 403.373 1377.86V1401.27H396.195V1363.87H400.317C401.103 1363.87 401.63 1364.02 401.9 1364.31C402.195 1364.58 402.403 1365.07 402.526 1365.79L402.968 1371.05ZM450.321 1401.86C447.302 1401.86 444.971 1401.01 443.327 1399.32C441.707 1397.63 440.898 1395.21 440.898 1392.07V1369.69H436.554C436.137 1369.69 435.781 1369.56 435.486 1369.32C435.217 1369.05 435.082 1368.66 435.082 1368.14V1365.23L441.155 1364.39L442.775 1353.23C442.873 1352.82 443.057 1352.5 443.327 1352.28C443.621 1352.03 443.99 1351.91 444.431 1351.91H448.075V1364.46H458.677V1369.69H448.075V1391.59C448.075 1393.06 448.431 1394.17 449.143 1394.9C449.879 1395.61 450.812 1395.97 451.941 1395.97C452.603 1395.97 453.168 1395.88 453.634 1395.71C454.125 1395.54 454.542 1395.36 454.885 1395.16C455.229 1394.94 455.523 1394.74 455.769 1394.57C456.014 1394.4 456.235 1394.31 456.431 1394.31C456.677 1394.31 456.861 1394.37 456.983 1394.5C457.131 1394.6 457.278 1394.77 457.425 1395.01L459.56 1398.47C458.382 1399.55 456.983 1400.39 455.364 1400.98C453.744 1401.56 452.063 1401.86 450.321 1401.86ZM559.443 1375.54V1396.15C556.768 1398.07 553.921 1399.5 550.903 1400.46C547.884 1401.39 544.596 1401.86 541.038 1401.86C536.768 1401.86 532.903 1401.2 529.443 1399.87C526.007 1398.55 523.075 1396.69 520.645 1394.31C518.216 1391.93 516.338 1389.09 515.013 1385.77C513.713 1382.46 513.062 1378.82 513.062 1374.84C513.062 1370.84 513.688 1367.18 514.94 1363.87C516.216 1360.53 518.032 1357.69 520.387 1355.33C522.743 1352.95 525.59 1351.11 528.927 1349.81C532.289 1348.49 536.056 1347.82 540.228 1347.82C542.338 1347.82 544.289 1347.98 546.081 1348.3C547.897 1348.62 549.578 1349.07 551.124 1349.66C552.67 1350.25 554.093 1350.96 555.394 1351.8C556.719 1352.61 557.946 1353.53 559.075 1354.56L556.829 1358.09C556.486 1358.66 556.032 1359.01 555.467 1359.16C554.903 1359.31 554.289 1359.17 553.627 1358.76C552.989 1358.39 552.277 1357.96 551.492 1357.47C550.731 1356.98 549.811 1356.52 548.731 1356.1C547.676 1355.69 546.437 1355.33 545.013 1355.04C543.59 1354.74 541.909 1354.6 539.97 1354.6C537.075 1354.6 534.461 1355.07 532.13 1356.03C529.799 1356.96 527.811 1358.31 526.167 1360.08C524.522 1361.85 523.259 1363.98 522.375 1366.49C521.492 1368.96 521.05 1371.75 521.05 1374.84C521.05 1378.08 521.516 1380.99 522.449 1383.56C523.381 1386.12 524.694 1388.29 526.387 1390.08C528.105 1391.85 530.179 1393.2 532.608 1394.13C535.062 1395.06 537.799 1395.53 540.817 1395.53C541.995 1395.53 543.087 1395.47 544.093 1395.34C545.124 1395.2 546.105 1395 547.038 1394.76C547.97 1394.51 548.866 1394.2 549.725 1393.83C550.608 1393.47 551.48 1393.06 552.338 1392.62V1381.54H544.535C544.044 1381.54 543.639 1381.39 543.32 1381.1C543.026 1380.8 542.878 1380.44 542.878 1379.99V1375.54H559.443ZM608.336 1378.41C608.336 1376.99 608.128 1375.68 607.71 1374.47C607.318 1373.27 606.729 1372.23 605.943 1371.34C605.158 1370.46 604.201 1369.77 603.072 1369.28C601.943 1368.79 600.643 1368.55 599.17 1368.55C596.152 1368.55 593.772 1369.42 592.029 1371.16C590.312 1372.9 589.22 1375.32 588.753 1378.41H608.336ZM614.263 1395.93C613.379 1396.96 612.361 1397.86 611.207 1398.62C610.054 1399.36 608.827 1399.96 607.526 1400.42C606.226 1400.89 604.876 1401.23 603.477 1401.45C602.103 1401.68 600.741 1401.79 599.391 1401.79C596.815 1401.79 594.422 1401.36 592.213 1400.5C590.029 1399.61 588.127 1398.34 586.508 1396.67C584.913 1394.98 583.661 1392.89 582.753 1390.41C581.87 1387.91 581.428 1385.04 581.428 1381.8C581.428 1379.2 581.833 1376.78 582.643 1374.55C583.453 1372.29 584.606 1370.33 586.103 1368.66C587.624 1366.99 589.477 1365.68 591.661 1364.72C593.845 1363.76 596.299 1363.28 599.023 1363.28C601.305 1363.28 603.404 1363.66 605.318 1364.42C607.256 1365.16 608.925 1366.24 610.324 1367.66C611.723 1369.09 612.815 1370.84 613.6 1372.93C614.41 1375.01 614.815 1377.39 614.815 1380.07C614.815 1381.17 614.692 1381.92 614.447 1382.31C614.201 1382.68 613.747 1382.87 613.085 1382.87H588.569C588.643 1385.1 588.962 1387.05 589.526 1388.72C590.091 1390.36 590.864 1391.74 591.845 1392.84C592.851 1393.95 594.042 1394.77 595.416 1395.31C596.79 1395.85 598.324 1396.12 600.017 1396.12C601.612 1396.12 602.986 1395.93 604.14 1395.56C605.318 1395.2 606.324 1394.8 607.158 1394.39C608.017 1393.95 608.729 1393.54 609.293 1393.17C609.882 1392.8 610.397 1392.62 610.839 1392.62C611.428 1392.62 611.882 1392.84 612.201 1393.28L614.263 1395.93ZM649.408 1401.86C646.39 1401.86 644.058 1401.01 642.414 1399.32C640.794 1397.63 639.985 1395.21 639.985 1392.07V1369.69H635.641C635.224 1369.69 634.868 1369.56 634.574 1369.32C634.304 1369.05 634.169 1368.66 634.169 1368.14V1365.23L640.242 1364.39L641.862 1353.23C641.96 1352.82 642.144 1352.5 642.414 1352.28C642.709 1352.03 643.077 1351.91 643.518 1351.91H647.163V1364.46H657.764V1369.69H647.163V1391.59C647.163 1393.06 647.518 1394.17 648.23 1394.9C648.966 1395.61 649.899 1395.97 651.028 1395.97C651.69 1395.97 652.255 1395.88 652.721 1395.71C653.212 1395.54 653.629 1395.36 653.972 1395.16C654.316 1394.94 654.61 1394.74 654.856 1394.57C655.101 1394.4 655.322 1394.31 655.518 1394.31C655.764 1394.31 655.948 1394.37 656.071 1394.5C656.218 1394.6 656.365 1394.77 656.512 1395.01L658.647 1398.47C657.469 1399.55 656.071 1400.39 654.451 1400.98C652.831 1401.56 651.15 1401.86 649.408 1401.86ZM723.266 1354.78V1372.49H744.468V1378.85H723.266V1401.27H715.389V1348.41H748.149V1354.78H723.266ZM799.376 1363.87V1401.27H795.069C794.087 1401.27 793.449 1400.79 793.155 1399.83L792.639 1396.08C791.83 1396.94 790.983 1397.72 790.1 1398.44C789.216 1399.15 788.271 1399.76 787.265 1400.28C786.259 1400.77 785.192 1401.15 784.063 1401.42C782.934 1401.71 781.719 1401.86 780.419 1401.86C778.357 1401.86 776.541 1401.52 774.971 1400.83C773.425 1400.14 772.124 1399.18 771.069 1397.96C770.014 1396.71 769.216 1395.21 768.676 1393.47C768.136 1391.72 767.866 1389.8 767.866 1387.69V1363.87H775.081V1387.69C775.081 1390.36 775.695 1392.45 776.922 1393.95C778.149 1395.42 780.026 1396.15 782.554 1396.15C784.394 1396.15 786.112 1395.72 787.707 1394.87C789.302 1393.98 790.799 1392.78 792.198 1391.26V1363.87H799.376ZM831.591 1369.06C832.401 1368.2 833.248 1367.42 834.131 1366.71C835.015 1365.99 835.947 1365.39 836.929 1364.9C837.935 1364.39 839.002 1363.99 840.131 1363.72C841.285 1363.43 842.512 1363.28 843.812 1363.28C845.874 1363.28 847.677 1363.63 849.223 1364.31C850.794 1365 852.107 1365.97 853.162 1367.22C854.217 1368.45 855.015 1369.93 855.555 1371.68C856.094 1373.42 856.364 1375.34 856.364 1377.45V1401.27H849.15V1377.45C849.15 1374.78 848.536 1372.71 847.309 1371.23C846.082 1369.74 844.205 1368.99 841.677 1368.99C839.837 1368.99 838.107 1369.43 836.487 1370.31C834.892 1371.17 833.407 1372.35 832.033 1373.85V1401.27H824.855V1363.87H829.162C830.168 1363.87 830.794 1364.35 831.039 1365.31L831.591 1369.06ZM905.621 1372.93C904.443 1371.38 903.167 1370.3 901.793 1369.69C900.443 1369.07 898.922 1368.77 897.229 1368.77C893.94 1368.77 891.388 1369.96 889.572 1372.34C887.781 1374.69 886.885 1378.14 886.885 1382.68C886.885 1385.06 887.081 1387.1 887.474 1388.79C887.891 1390.46 888.48 1391.83 889.241 1392.91C890.026 1393.97 890.983 1394.76 892.112 1395.27C893.241 1395.76 894.517 1396.01 895.94 1396.01C898.026 1396.01 899.83 1395.54 901.351 1394.61C902.873 1393.68 904.296 1392.36 905.621 1390.67V1372.93ZM912.836 1346.94V1401.27H908.492C907.486 1401.27 906.861 1400.79 906.615 1399.83L905.989 1395.53C904.394 1397.42 902.578 1398.94 900.541 1400.09C898.529 1401.22 896.198 1401.79 893.548 1401.79C891.413 1401.79 889.474 1401.37 887.732 1400.53C886.014 1399.7 884.541 1398.49 883.314 1396.89C882.087 1395.27 881.143 1393.27 880.48 1390.89C879.817 1388.51 879.486 1385.77 879.486 1382.68C879.486 1379.91 879.854 1377.33 880.59 1374.95C881.327 1372.57 882.394 1370.51 883.793 1368.77C885.192 1367.02 886.885 1365.66 888.873 1364.68C890.86 1363.68 893.106 1363.17 895.609 1363.17C897.867 1363.17 899.781 1363.54 901.351 1364.28C902.946 1365.01 904.37 1366.06 905.621 1367.41V1346.94H912.836ZM963.083 1378.41C963.083 1376.99 962.875 1375.68 962.457 1374.47C962.065 1373.27 961.476 1372.23 960.691 1371.34C959.905 1370.46 958.948 1369.77 957.819 1369.28C956.691 1368.79 955.39 1368.55 953.918 1368.55C950.899 1368.55 948.519 1369.42 946.776 1371.16C945.059 1372.9 943.967 1375.32 943.5 1378.41H963.083ZM969.01 1395.93C968.126 1396.96 967.108 1397.86 965.954 1398.62C964.801 1399.36 963.574 1399.96 962.273 1400.42C960.973 1400.89 959.623 1401.23 958.224 1401.45C956.85 1401.68 955.488 1401.79 954.138 1401.79C951.562 1401.79 949.169 1401.36 946.961 1400.5C944.776 1399.61 942.875 1398.34 941.255 1396.67C939.66 1394.98 938.408 1392.89 937.5 1390.41C936.617 1387.91 936.175 1385.04 936.175 1381.8C936.175 1379.2 936.58 1376.78 937.39 1374.55C938.2 1372.29 939.353 1370.33 940.85 1368.66C942.372 1366.99 944.224 1365.68 946.408 1364.72C948.592 1363.76 951.046 1363.28 953.77 1363.28C956.053 1363.28 958.151 1363.66 960.065 1364.42C962.004 1365.16 963.672 1366.24 965.071 1367.66C966.47 1369.09 967.562 1370.84 968.347 1372.93C969.157 1375.01 969.562 1377.39 969.562 1380.07C969.562 1381.17 969.439 1381.92 969.194 1382.31C968.948 1382.68 968.494 1382.87 967.832 1382.87H943.316C943.39 1385.1 943.709 1387.05 944.273 1388.72C944.838 1390.36 945.611 1391.74 946.592 1392.84C947.599 1393.95 948.789 1394.77 950.163 1395.31C951.537 1395.85 953.071 1396.12 954.764 1396.12C956.359 1396.12 957.734 1395.93 958.887 1395.56C960.065 1395.2 961.071 1394.8 961.905 1394.39C962.764 1393.95 963.476 1393.54 964.04 1393.17C964.629 1392.8 965.145 1392.62 965.586 1392.62C966.175 1392.62 966.629 1392.84 966.948 1393.28L969.01 1395.93ZM1016.85 1372.93C1015.67 1371.38 1014.39 1370.3 1013.02 1369.69C1011.67 1369.07 1010.15 1368.77 1008.45 1368.77C1005.17 1368.77 1002.61 1369.96 1000.8 1372.34C999.007 1374.69 998.111 1378.14 998.111 1382.68C998.111 1385.06 998.308 1387.1 998.7 1388.79C999.118 1390.46 999.706 1391.83 1000.47 1392.91C1001.25 1393.97 1002.21 1394.76 1003.34 1395.27C1004.47 1395.76 1005.74 1396.01 1007.17 1396.01C1009.25 1396.01 1011.06 1395.54 1012.58 1394.61C1014.1 1393.68 1015.52 1392.36 1016.85 1390.67V1372.93ZM1024.06 1346.94V1401.27H1019.72C1018.71 1401.27 1018.09 1400.79 1017.84 1399.83L1017.22 1395.53C1015.62 1397.42 1013.8 1398.94 1011.77 1400.09C1009.76 1401.22 1007.42 1401.79 1004.77 1401.79C1002.64 1401.79 1000.7 1401.37 998.958 1400.53C997.24 1399.7 995.768 1398.49 994.541 1396.89C993.314 1395.27 992.369 1393.27 991.706 1390.89C991.044 1388.51 990.713 1385.77 990.713 1382.68C990.713 1379.91 991.081 1377.33 991.817 1374.95C992.553 1372.57 993.621 1370.51 995.019 1368.77C996.418 1367.02 998.111 1365.66 1000.1 1364.68C1002.09 1363.68 1004.33 1363.17 1006.84 1363.17C1009.09 1363.17 1011.01 1363.54 1012.58 1364.28C1014.17 1365.01 1015.6 1366.06 1016.85 1367.41V1346.94H1024.06Z" fill="#666666"/>
<path d="M25.5819 1286.02C21.9815 1286.02 18.9496 1284.88 16.4861 1282.61C14.0227 1280.34 12.791 1277.4 12.791 1273.8V1178.86C12.791 1175.26 14.0227 1172.32 16.4861 1170.05C18.9496 1167.78 21.9815 1166.64 25.5819 1166.64C29.3718 1166.64 32.4038 1167.78 34.6777 1170.05C37.1412 1172.32 38.3729 1175.26 38.3729 1178.86V1203.87C38.3729 1207.1 39.2256 1208.71 40.9311 1208.71C41.8786 1208.71 42.9208 1208.04 44.0578 1206.72L77.3143 1171.19C80.3462 1168.15 83.5676 1166.64 86.9786 1166.64C90.579 1166.64 93.7057 1167.87 96.3586 1170.33C99.0115 1172.8 100.338 1175.73 100.338 1179.15C100.338 1182.18 99.1063 1184.92 96.6428 1187.39L62.8178 1221.21L100.622 1264.42C101.949 1265.74 102.801 1267.17 103.18 1268.68C103.559 1270.2 103.749 1271.71 103.749 1273.23C103.749 1276.64 102.422 1279.67 99.7695 1282.33C97.1166 1284.79 94.0846 1286.02 90.6737 1286.02C87.0733 1286.02 83.7571 1284.5 80.7252 1281.47L45.479 1238.27L43.205 1240.54C41.1206 1242.63 39.7941 1244.62 39.2256 1246.51C38.6571 1248.41 38.3729 1250.77 38.3729 1253.62V1273.8C38.3729 1277.4 37.1412 1280.34 34.6777 1282.61C32.4038 1284.88 29.3718 1286.02 25.5819 1286.02ZM193.001 1286.02C181.821 1286.02 171.683 1283.37 162.587 1278.06C153.681 1272.57 146.575 1265.18 141.269 1255.89C136.153 1246.61 133.594 1236.37 133.594 1225.19C133.594 1213.63 136.153 1203.4 141.269 1194.49C146.575 1185.4 153.681 1178.29 162.587 1173.18C171.494 1167.87 181.632 1165.22 193.001 1165.22C204.371 1165.22 214.414 1167.87 223.131 1173.18C232.038 1178.29 238.954 1185.4 243.881 1194.49C248.997 1203.4 251.556 1213.63 251.556 1225.19C251.556 1236.56 248.997 1246.89 243.881 1256.18C238.765 1265.27 231.753 1272.57 222.847 1278.06C214.13 1283.37 204.182 1286.02 193.001 1286.02ZM193.001 1263.28C202.666 1263.28 210.53 1259.68 216.594 1252.48C222.847 1245.28 225.974 1236.18 225.974 1225.19C225.974 1214.2 222.847 1205.2 216.594 1198.19C210.53 1191.18 202.666 1187.67 193.001 1187.67C183.148 1187.67 174.999 1191.18 168.556 1198.19C162.303 1205.2 159.176 1214.2 159.176 1225.19C159.176 1236.18 162.303 1245.28 168.556 1252.48C174.999 1259.68 183.148 1263.28 193.001 1263.28ZM304.096 1286.02C300.306 1286.02 297.18 1284.98 294.716 1282.89C292.442 1280.62 291.305 1277.68 291.305 1274.08V1181.7C291.305 1176.78 292.821 1173.08 295.853 1170.62C298.885 1167.96 302.296 1166.64 306.086 1166.64C308.739 1166.64 311.297 1167.3 313.761 1168.63C316.224 1169.77 318.308 1171.66 320.014 1174.31L360.945 1235.99C361.703 1237.32 362.84 1237.98 364.356 1237.98C366.251 1237.98 367.198 1236.85 367.198 1234.57L365.209 1178.58C365.019 1174.79 366.156 1171.85 368.62 1169.77C371.083 1167.68 374.21 1166.64 378 1166.64C381.79 1166.64 384.821 1167.68 387.095 1169.77C389.559 1171.85 390.791 1174.79 390.791 1178.58V1270.67C390.791 1275.41 389.275 1279.1 386.243 1281.76C383.211 1284.41 379.8 1285.74 376.01 1285.74C373.546 1285.74 371.083 1285.07 368.62 1283.75C366.156 1282.61 364.072 1280.71 362.366 1278.06L321.719 1214.39C320.961 1213.06 319.824 1212.4 318.308 1212.4C316.224 1212.4 315.182 1213.63 315.182 1216.1L316.887 1274.08C317.077 1277.68 315.94 1280.62 313.476 1282.89C311.013 1284.98 307.886 1286.02 304.096 1286.02ZM454.868 1283.18C449.372 1283.18 444.919 1281.47 441.508 1278.06C438.097 1274.65 436.392 1270.2 436.392 1264.7V1185.68C436.392 1180.19 438.002 1175.92 441.224 1172.89C444.445 1169.67 448.709 1168.06 454.015 1168.06H496.936C504.894 1168.06 508.874 1171.85 508.874 1179.43C508.874 1182.65 507.737 1185.4 505.463 1187.67C503.189 1189.76 500.346 1190.8 496.936 1190.8H467.658C463.869 1190.8 461.974 1192.69 461.974 1196.48V1207.85C461.974 1211.64 463.869 1213.54 467.658 1213.54H492.672C496.462 1213.54 499.399 1214.58 501.483 1216.67C503.568 1218.75 504.61 1221.5 504.61 1224.91C504.61 1227.94 503.378 1230.59 500.915 1232.87C498.641 1235.14 495.893 1236.28 492.672 1236.28H467.658C463.869 1236.28 461.974 1238.17 461.974 1241.96V1254.47C461.974 1258.26 463.869 1260.15 467.658 1260.15H499.778C503.378 1260.15 506.221 1261.2 508.305 1263.28C510.579 1265.37 511.716 1268.21 511.716 1271.81C511.716 1275.03 510.579 1277.78 508.305 1280.05C506.031 1282.14 503.189 1283.18 499.778 1283.18H454.868ZM645.3 1275.5C641.699 1278.35 636.204 1280.81 628.813 1282.89C621.423 1284.98 614.222 1286.02 607.211 1286.02C595.462 1286.02 584.945 1283.46 575.66 1278.35C566.375 1273.04 559.079 1265.74 553.773 1256.46C548.467 1247.17 545.814 1236.66 545.814 1224.91C545.814 1212.59 548.373 1201.98 553.489 1193.07C558.795 1184.17 566.09 1177.34 575.376 1172.61C584.661 1167.68 595.462 1165.22 607.779 1165.22C612.896 1165.22 618.012 1165.69 623.129 1166.64C628.434 1167.59 633.267 1169.1 637.625 1171.19C639.899 1172.32 641.51 1173.84 642.457 1175.73C643.594 1177.44 644.163 1179.33 644.163 1181.42C644.163 1184.45 643.026 1187.29 640.752 1189.95C638.667 1192.41 635.825 1193.64 632.224 1193.64C630.708 1193.64 629.098 1193.36 627.392 1192.79C623.981 1191.46 620.286 1190.42 616.307 1189.66C612.327 1188.71 608.822 1188.24 605.79 1188.24C595.936 1188.24 587.693 1191.56 581.061 1198.19C574.618 1204.82 571.396 1213.73 571.396 1224.91C571.396 1236.85 574.712 1246.23 581.345 1253.05C588.167 1259.87 596.883 1263.28 607.495 1263.28C611.854 1263.28 616.496 1262.52 621.423 1261.01C626.35 1259.49 630.329 1257.6 633.361 1255.32C635.446 1254 637.72 1253.33 640.183 1253.33C643.405 1253.33 645.963 1254.47 647.858 1256.74C649.942 1258.83 650.984 1261.48 650.984 1264.7C650.984 1268.87 649.09 1272.47 645.3 1275.5ZM726.32 1286.02C722.72 1286.02 719.688 1284.98 717.224 1282.89C714.761 1280.62 713.529 1277.68 713.529 1274.08V1199.89C713.529 1194.21 710.687 1191.37 705.002 1191.37H691.074C687.663 1191.37 684.821 1190.33 682.547 1188.24C680.462 1185.97 679.42 1183.12 679.42 1179.71C679.42 1176.3 680.462 1173.55 682.547 1171.47C684.821 1169.2 687.663 1168.06 691.074 1168.06H761.282C764.883 1168.06 767.725 1169.2 769.809 1171.47C772.083 1173.55 773.22 1176.3 773.22 1179.71C773.22 1183.12 772.083 1185.97 769.809 1188.24C767.725 1190.33 764.883 1191.37 761.282 1191.37H747.638C741.954 1191.37 739.111 1194.21 739.111 1199.89V1274.08C739.111 1277.68 737.879 1280.62 735.416 1282.89C733.142 1284.98 730.11 1286.02 726.32 1286.02ZM827.116 1283.18C821.62 1283.18 817.167 1281.47 813.756 1278.06C810.345 1274.65 808.64 1270.2 808.64 1264.7V1185.68C808.64 1180.19 810.25 1175.92 813.472 1172.89C816.693 1169.67 820.957 1168.06 826.263 1168.06H869.184C877.142 1168.06 881.122 1171.85 881.122 1179.43C881.122 1182.65 879.985 1185.4 877.711 1187.67C875.437 1189.76 872.595 1190.8 869.184 1190.8H839.907C836.117 1190.8 834.222 1192.69 834.222 1196.48V1207.85C834.222 1211.64 836.117 1213.54 839.907 1213.54H864.92C868.71 1213.54 871.647 1214.58 873.732 1216.67C875.816 1218.75 876.858 1221.5 876.858 1224.91C876.858 1227.94 875.627 1230.59 873.163 1232.87C870.889 1235.14 868.141 1236.28 864.92 1236.28H839.907C836.117 1236.28 834.222 1238.17 834.222 1241.96V1254.47C834.222 1258.26 836.117 1260.15 839.907 1260.15H872.026C875.627 1260.15 878.469 1261.2 880.553 1263.28C882.827 1265.37 883.964 1268.21 883.964 1271.81C883.964 1275.03 882.827 1277.78 880.553 1280.05C878.279 1282.14 875.437 1283.18 872.026 1283.18H827.116ZM943.076 1283.18C937.202 1283.18 932.464 1281.57 928.864 1278.35C925.453 1274.94 923.747 1270.48 923.747 1264.99V1185.68C923.747 1180.19 925.358 1175.92 928.58 1172.89C931.801 1169.67 936.065 1168.06 941.37 1168.06H967.237C979.743 1168.06 990.355 1170.62 999.072 1175.73C1007.79 1180.66 1014.42 1187.48 1018.97 1196.2C1023.71 1204.73 1026.08 1214.49 1026.08 1225.48C1026.08 1236.85 1023.71 1246.89 1018.97 1255.61C1014.23 1264.32 1007.79 1271.15 999.64 1276.07C991.492 1280.81 982.396 1283.18 972.353 1283.18H943.076ZM956.435 1260.44H967.521C978.322 1260.44 986.565 1257.41 992.25 1251.34C997.935 1245.09 1000.68 1236.47 1000.49 1225.48C1000.3 1214.11 997.366 1205.48 991.682 1199.61C985.997 1193.74 977.848 1190.8 967.237 1190.8H956.435C951.698 1190.8 949.329 1193.17 949.329 1197.91V1253.33C949.329 1258.07 951.698 1260.44 956.435 1260.44Z" fill="white"/>
<path d="M726.798 5C807.12 5 872.651 68.3241 876.191 147.772C876.392 152.269 875.914 156.767 875.063 161.188L750.656 807.478C719.079 901.474 669.256 909.892 599.084 881.833L225.773 745.337C198.623 735.41 180.209 710.006 179.223 681.115L159.393 100.454C158.065 61.5681 188.299 28.8655 227.169 27.1428L726.798 5Z" fill="white"/>
<path d="M523.068 141.052C558.575 141.052 587.358 169.836 587.358 205.343C587.358 240.849 558.575 269.633 523.068 269.633C487.562 269.633 458.778 240.85 458.777 205.343C458.777 169.836 487.562 141.052 523.068 141.052Z" fill="#B7B7B7"/>
<path d="M523.068 141.052C558.575 141.052 587.358 169.836 587.358 205.343C587.358 240.849 558.575 269.633 523.068 269.633C487.562 269.633 458.778 240.85 458.777 205.343C458.777 169.836 487.562 141.052 523.068 141.052Z" stroke="#FF6A0E"/>
<path d="M329.62 52.5852C365.126 52.5857 393.911 81.3698 393.911 116.876C393.911 118.556 393.846 120.221 393.72 121.868L385.259 342.84C384.954 350.8 390.936 357.44 397.712 361.627C413.804 371.571 426.6 355.525 436.093 339.162C438.681 334.701 442.141 330.644 446.439 327.258C464.668 312.899 491.086 316.035 505.445 334.263C505.447 334.266 505.449 334.269 505.451 334.272L716.132 566.724C718.269 568.774 720.291 570.998 722.176 573.391C744.147 601.283 739.347 641.706 711.456 663.678C683.782 685.478 643.773 680.923 621.688 653.608L621.17 652.958H621.168L621.16 652.946C619.283 650.561 617.6 648.085 616.111 645.537L469.824 430.865C467.856 427.976 465.25 425.601 462.635 423.282C453.282 414.993 442.971 405.425 430.474 405.424C419.341 405.424 409.852 413.078 401.128 419.993C391.794 427.392 381.672 436.512 381.216 448.413L372.158 684.978C372.15 685.194 371.971 685.366 371.755 685.366C371.549 685.366 371.376 685.523 371.352 685.728C368.916 706.615 351.161 722.827 329.62 722.827C306.415 722.827 287.604 704.016 287.604 680.811C287.604 679.526 287.662 678.255 287.774 676.999L265.538 122.077C265.401 120.362 265.33 118.627 265.33 116.876C265.33 81.3696 294.113 52.5853 329.62 52.5852Z" fill="black"/>
<path d="M726.798 5C807.12 5 872.651 68.3241 876.191 147.772C876.392 152.269 875.914 156.767 875.063 161.188L750.656 807.478C719.079 901.474 669.256 909.892 599.084 881.833L225.773 745.337C198.623 735.41 180.209 710.006 179.223 681.115L159.393 100.454C158.065 61.5681 188.299 28.8655 227.169 27.1428L726.798 5Z" fill="white" stroke="#FF6A0E" stroke-width="10"/>
<path d="M523.068 141.052C558.575 141.052 587.358 169.836 587.358 205.343C587.358 240.849 558.575 269.633 523.068 269.633C487.562 269.633 458.778 240.85 458.777 205.343C458.777 169.836 487.562 141.052 523.068 141.052Z" fill="#B7B7B7"/>
<path d="M523.068 141.052C558.575 141.052 587.358 169.836 587.358 205.343C587.358 240.849 558.575 269.633 523.068 269.633C487.562 269.633 458.778 240.85 458.777 205.343C458.777 169.836 487.562 141.052 523.068 141.052Z" stroke="#FF6A0E"/>
<path d="M329.62 52.5852C365.126 52.5857 393.911 81.3698 393.911 116.876C393.911 118.556 393.846 120.221 393.72 121.868L385.259 342.84C384.954 350.8 390.936 357.44 397.712 361.627C413.804 371.571 426.6 355.525 436.093 339.162C438.681 334.701 442.141 330.644 446.439 327.258C464.668 312.899 491.086 316.035 505.445 334.263C505.447 334.266 505.449 334.269 505.451 334.272L716.132 566.724C718.269 568.774 720.291 570.998 722.176 573.391C744.147 601.283 739.347 641.706 711.456 663.678C683.782 685.478 643.773 680.923 621.688 653.608L621.17 652.958H621.168L621.16 652.946C619.283 650.561 617.6 648.085 616.111 645.537L469.824 430.865C467.856 427.976 465.25 425.601 462.635 423.282C453.282 414.993 442.971 405.425 430.474 405.424C419.341 405.424 409.852 413.078 401.128 419.993C391.794 427.392 381.672 436.512 381.216 448.413L372.158 684.978C372.15 685.194 371.971 685.366 371.755 685.366C371.549 685.366 371.376 685.523 371.352 685.728C368.916 706.615 351.161 722.827 329.62 722.827C306.415 722.827 287.604 704.016 287.604 680.811C287.604 679.526 287.662 678.255 287.774 676.999L265.538 122.077C265.401 120.362 265.33 118.627 265.33 116.876C265.33 81.3696 294.113 52.5853 329.62 52.5852Z" fill="black"/>
<path d="M648.569 111.733C658.172 105.929 670.661 109.008 676.466 118.61C682.27 128.213 679.192 140.702 669.59 146.507C655.076 155.28 631.772 148.001 617.259 156.774L609.538 161.441C599.347 167.602 593.208 178.906 587.223 190.412C586.608 191.595 586.426 192.944 586.647 194.259C586.93 195.933 587.851 197.449 589.255 198.404C598.169 204.472 607.006 211.034 616.705 212.093L657.434 216.539C678.639 218.854 701.103 199.59 722.309 201.905C736.926 203.501 747.482 216.645 745.886 231.262C744.29 245.878 731.146 256.434 716.529 254.838C694.754 252.46 676.537 227.257 654.762 224.879L612.935 220.311C605.516 219.502 597.926 221.864 590.315 224.609C586.105 226.127 582.875 229.538 580.887 233.547C578.522 238.316 577.982 243.891 580.022 248.808C584.006 258.408 587.82 268.195 595.088 274.145L627.001 300.277C652.081 320.814 696.732 314.842 721.812 335.379C739.064 349.505 741.598 374.942 727.472 392.193C713.346 409.444 687.909 411.978 670.657 397.852C643.826 375.882 642.93 324.41 616.099 302.439L587.439 278.973C582.621 275.027 576.497 272.868 570.025 271.183C555.064 267.289 538.715 269.314 523.255 269.314C487.748 269.314 458.965 240.53 458.965 205.023C458.965 169.517 487.748 140.733 523.255 140.733C529.868 140.733 536.249 141.732 542.253 143.587C561.53 149.542 581.271 162.215 600.384 155.756C603.238 154.792 605.962 153.577 608.516 152.033L617.619 146.53C630.539 138.72 635.649 119.544 648.569 111.733Z" fill="#FF6A0E"/>
</svg>
